<?xml version="1.0" encoding="utf-8"?>
<!-- Uploaded to: SVG Repo, www.svgrepo.com, Generator: SVG Repo Mixer Tools -->
<svg width="800px" height="800px" viewBox="0 0 24 24" xmlns="http://www.w3.org/2000/svg">
<defs>
<style>.cls-1{fill:none;stroke:#000000;stroke-linecap:round;stroke-linejoin:round;stroke-width:1.5px;fill-rule:evenodd;}</style>
</defs>
<g id="ic-mobile-battery">
<path class="cls-1" d="M16,5H15V4a1,1,0,0,0-1-1H10A1,1,0,0,0,9,4V5H8A2,2,0,0,0,6,7V19a2,2,0,0,0,2,2h8a2,2,0,0,0,2-2V7A2,2,0,0,0,16,5Z"/>
<path class="cls-1" d="M13.42,8.5l-2.81,4.7a.2.2,0,0,0,.17.3H13.1a.2.2,0,0,1,.18.29L11.42,17.5"/>
</g>
</svg>